HIERARCHY
ROOT mixamorig:Hips
{
  OFFSET 0.000000 0.000000 0.000000
  CHANNELS 6 Xposition Yposition Zposition Xrotation Yrotation Zrotation
  JOINT mixamorig:Spine
  {
    OFFSET 1.277922 23.685776 -1.473739
    CHANNELS 3 Xrotation Yrotation Zrotation
    JOINT mixamorig:Spine2
    {
      OFFSET 1.277922 23.685776 -1.473739
      CHANNELS 3 Xrotation Yrotation Zrotation
      JOINT mixamorig:Neck
      {
        OFFSET 0.000000 4.227248 0.000000
        CHANNELS 3 Xrotation Yrotation Zrotation
        JOINT mixamorig:Head
        {
          OFFSET 0.000000 3.735021 0.000000
          CHANNELS 3 Xrotation Yrotation Zrotation
          End Site
          {
            OFFSET 0.000000 1.120506 0.000000
          }
        }
      }
      JOINT mixamorig:LeftShoulder
      {
        OFFSET 15.589172 3.940868 -1.613959
        CHANNELS 3 Xrotation Yrotation Zrotation
        JOINT mixamorig:LeftArm
        {
          OFFSET 1.009262 -19.267075 -10.059340
          CHANNELS 3 Xrotation Yrotation Zrotation
          JOINT mixamorig:LeftForeArm
          {
            OFFSET -7.551586 9.126048 -14.273645
            CHANNELS 3 Xrotation Yrotation Zrotation
            JOINT mixamorig:LeftHand
            {
              OFFSET -2.601524 3.809930 -1.584078
              CHANNELS 3 Xrotation Yrotation Zrotation
              End Site
              {
                OFFSET -0.780457 1.142979 -0.475223
              }
            }
          }
        }
      }
      JOINT mixamorig:RightShoulder
      {
        OFFSET -15.589172 3.940868 1.613959
        CHANNELS 3 Xrotation Yrotation Zrotation
        JOINT mixamorig:RightArm
        {
          OFFSET 0.369772 -24.896812 -13.866074
          CHANNELS 3 Xrotation Yrotation Zrotation
          JOINT mixamorig:RightForeArm
          {
            OFFSET 7.064691 11.192793 -19.148022
            CHANNELS 3 Xrotation Yrotation Zrotation
            JOINT mixamorig:RightHand
            {
              OFFSET 3.786626 5.224959 -4.202100
              CHANNELS 3 Xrotation Yrotation Zrotation
              End Site
              {
                OFFSET 1.135988 1.567488 -1.260630
              }
            }
          }
        }
      }
    }
  }
  JOINT mixamorig:LeftUpLeg
  {
    OFFSET 9.460444 -0.159481 1.370640
    CHANNELS 3 Xrotation Yrotation Zrotation
    JOINT mixamorig:LeftLeg
    {
      OFFSET 11.476000 -40.598035 -6.922701
      CHANNELS 3 Xrotation Yrotation Zrotation
      JOINT mixamorig:LeftFoot
      {
        OFFSET 10.790807 -36.194235 11.674022
        CHANNELS 3 Xrotation Yrotation Zrotation
        JOINT mixamorig:LeftToeBase
        {
          OFFSET -0.217554 -6.343681 -6.642804
          CHANNELS 3 Xrotation Yrotation Zrotation
          End Site
          {
            OFFSET -0.065266 -1.903104 -1.992841
          }
        }
      }
    }
  }
  JOINT mixamorig:RightUpLeg
  {
    OFFSET -9.460444 0.159481 -1.370640
    CHANNELS 3 Xrotation Yrotation Zrotation
    JOINT mixamorig:RightLeg
    {
      OFFSET -1.472079 -34.936613 11.400775
      CHANNELS 3 Xrotation Yrotation Zrotation
      JOINT mixamorig:RightFoot
      {
        OFFSET -9.570470 -38.467240 26.014859
        CHANNELS 3 Xrotation Yrotation Zrotation
        JOINT mixamorig:RightToeBase
        {
          OFFSET -7.756088 -3.724676 -6.009160
          CHANNELS 3 Xrotation Yrotation Zrotation
          End Site
          {
            OFFSET -2.326826 -1.117403 -1.802748
          }
        }
      }
    }
  }
}
MOTION
Frames: 9
Frame Time: 0.083333
0.090789 0.145179 0.171168 1.828405 0.082825 3.764481 -0.000000 0.000000 -0.000000 -2.915580 11.954939 -3.390233 23.907909 -4.536805 -2.436921 23.680658 -3.978850 -4.540595 7.750285 -14.681234 6.683500 -2.727771 6.941913 -4.180782 -0.973940 -1.831337 1.167420 0.000000 0.000000 0.000000 2.908884 -12.315879 1.131820 -1.110279 1.078668 -0.600470 1.273948 -0.589790 0.786088 0.000000 0.000000 0.000000 -5.396627 0.173933 -10.334278 -5.389514 -4.617045 3.839634 -5.217007 6.996371 -0.346071 0.000000 0.000000 0.000000 10.633499 -0.408216 0.501563 -8.384368 5.668507 5.634475 -4.499222 -7.107810 -9.418673 0.000000 0.000000 0.000000
0.082381 0.144437 0.192889 0.047796 0.336166 5.192901 -0.000000 0.000000 -0.000000 -2.691366 16.381214 -4.199284 25.759328 -8.569546 -1.134981 24.999557 -8.927038 -5.019740 7.608978 -21.099628 9.974194 -6.860792 12.472343 -2.095972 2.315713 -4.853045 2.039548 0.000000 0.000000 0.000000 5.405614 -15.542050 -1.151921 -3.046268 -0.524965 1.103371 1.782781 -0.676532 0.160967 0.000000 0.000000 0.000000 -3.466494 -0.141541 -11.748432 -7.609205 -4.147586 6.589812 -5.638138 10.122478 -8.275897 0.000000 0.000000 0.000000 11.534864 -0.822531 -0.194403 -5.458939 5.132242 5.827558 -7.632147 -6.402633 -8.971906 0.000000 0.000000 0.000000
0.078208 0.128811 0.226078 -1.159985 0.644015 8.009065 0.000000 0.000000 0.000000 -2.632119 18.380859 -6.450343 27.169159 -9.912174 -0.901046 26.074842 -10.548422 -5.573426 2.859364 -26.414176 16.010837 -11.451037 23.956590 -0.251982 7.087314 -11.439802 6.824088 0.000000 0.000000 0.000000 6.943088 -16.201370 -3.874019 -3.771511 -1.774594 3.341834 2.321084 -1.364962 -0.759522 0.000000 0.000000 0.000000 4.187513 0.972976 -15.106148 -19.893681 -5.012687 12.483455 -8.698844 11.423237 -19.772934 0.000000 0.000000 0.000000 13.061408 -2.084589 -3.297167 -1.552985 3.791321 7.178358 -11.990517 -3.363493 -9.947781 0.000000 0.000000 0.000000
0.083942 0.102944 0.250635 -0.170493 0.688709 11.114355 0.000000 0.000000 0.000000 -2.708126 17.456491 -9.800167 27.041330 -9.652111 -2.253916 26.237592 -9.668470 -6.891620 -8.680045 -26.947505 21.763054 -7.090623 35.806298 -2.725146 10.409742 -20.425536 13.290458 0.000000 0.000000 0.000000 6.337205 -13.625935 -6.586214 -3.074838 -5.485985 4.472137 3.152438 -0.922317 -1.375679 0.000000 0.000000 0.000000 21.919722 5.396603 -19.447637 -47.070818 -8.320962 16.754565 -16.678485 10.456305 -27.883502 0.000000 0.000000 0.000000 15.589898 -3.739666 -7.277567 1.040404 2.256475 9.179715 -13.806117 -2.845866 -15.315730 0.000000 0.000000 0.000000
0.092239 0.084925 0.259232 3.423824 0.235336 13.315574 0.000000 0.000000 -0.000000 -2.529503 18.472421 -12.921749 25.883818 -10.580203 -2.883588 25.034655 -10.388957 -7.805935 -21.268966 -26.968574 25.056681 3.669281 38.254473 -10.012338 14.822828 -24.429051 15.112174 0.000000 0.000000 0.000000 4.787609 -14.031786 -5.796336 -3.695313 -6.407907 3.625419 3.887638 -1.024283 -1.486206 0.000000 0.000000 0.000000 39.325116 11.468446 -22.777558 -68.971738 -10.114514 14.088125 -34.062037 11.712040 -26.865016 0.000000 0.000000 0.000000 15.073497 -4.205827 -10.752508 1.830770 1.246701 10.445177 -13.389116 -1.597139 -20.183434 0.000000 0.000000 0.000000
0.095699 0.090053 0.253495 5.163223 -0.034374 14.324122 -0.000000 0.000000 -0.000000 -2.466856 17.945817 -14.423085 24.854703 -9.742710 -3.847108 24.358883 -9.043662 -8.291977 -18.942819 -27.124110 25.619686 -11.094496 35.513966 -5.404482 21.796590 -19.414952 12.345453 0.000000 0.000000 0.000000 3.201907 -14.583573 -3.268243 -3.384764 -4.861383 1.308661 3.894260 -0.532265 -0.570857 0.000000 0.000000 0.000000 41.432685 12.450291 -23.586728 -65.504286 -11.192343 12.752287 -34.387007 10.483715 -20.297952 0.000000 0.000000 0.000000 14.475870 -4.304991 -12.879399 1.300101 1.330810 11.669665 -14.321663 0.396951 -20.423537 0.000000 0.000000 0.000000
0.092525 0.116031 0.240070 3.759002 0.184058 13.709375 -0.000000 0.000000 -0.000000 -2.542521 17.885911 -13.377155 25.635139 -10.303549 -3.559417 24.908098 -9.815426 -8.398339 -13.054168 -28.118395 25.063752 -14.073478 28.675944 -5.597770 20.378997 -11.901244 9.570500 0.000000 0.000000 0.000000 2.056554 -15.610811 -2.800508 -2.776952 -2.881876 0.266085 4.658482 -0.699086 -0.077440 0.000000 0.000000 0.000000 35.972600 8.020152 -18.257544 -54.798256 -10.206054 7.146305 -21.710035 5.453431 -18.469905 0.000000 0.000000 0.000000 16.459472 -4.903584 -12.529657 -1.641251 2.253030 12.079551 -12.245008 0.345489 -20.981833 0.000000 0.000000 0.000000
0.091259 0.142388 0.211211 1.225795 0.520318 10.832935 -0.000000 0.000000 -0.000000 -2.669880 17.882276 -9.827790 26.868961 -11.286940 -2.424617 25.690081 -11.403896 -7.859548 -4.645994 -29.081456 23.318331 -8.510008 20.049729 -10.783242 13.168948 -3.995469 6.694044 0.000000 0.000000 0.000000 0.432804 -16.004460 -4.450426 -1.404645 -2.536777 0.551598 5.023545 -0.336914 0.029940 0.000000 0.000000 0.000000 18.863307 2.740379 -12.542123 -28.575138 -7.169556 4.147613 -14.982133 4.149535 -9.653746 0.000000 0.000000 0.000000 17.407157 -4.480403 -8.749411 -4.939364 3.577387 10.527628 -10.085597 1.687264 -18.511028 0.000000 0.000000 0.000000
0.098624 0.148188 0.176144 2.553495 0.118788 5.365764 0.000000 0.000000 0.000000 -2.842461 13.505973 -4.989418 24.531052 -8.112755 -2.515006 23.902007 -7.858372 -6.212955 -1.478821 -23.062035 19.040516 0.400384 13.277784 -14.793476 3.979409 -0.404066 6.578182 0.000000 0.000000 0.000000 -2.112450 -10.804515 -5.772847 -5.634741 -4.347862 0.570384 5.744587 0.413723 -1.204302 0.000000 0.000000 0.000000 -2.374878 -0.066116 -5.137541 -4.738091 -2.229488 -2.532669 -6.192383 -4.214152 9.848059 0.000000 0.000000 0.000000 14.452051 -1.797066 -2.563807 -10.866168 4.906843 7.073180 -7.090467 -0.425204 -10.393283 0.000000 0.000000 0.000000
